<?xml version="1.0" standalone="no"?>
<!DOCTYPE svg PUBLIC "-//W3C//DTD SVG 20010904//EN"
 "http://www.w3.org/TR/2001/REC-SVG-20010904/DTD/svg10.dtd">
<svg version="1.0" xmlns="http://www.w3.org/2000/svg"
 width="800.000000pt" height="1250.000000pt" viewBox="0 0 800.000000 1250.000000"
 preserveAspectRatio="xMidYMid meet">

<g transform="translate(0.000000,1250.000000) scale(0.100000,-0.100000)"
fill="#000000" stroke="none">
<path d="M189 12456 c-2 -24 -1 -42 4 -39 4 2 7 -2 7 -9 0 -25 25 -68 36 -64
7 3 9 -5 6 -20 -2 -14 2 -32 10 -42 8 -9 22 -42 32 -72 10 -30 23 -59 27 -64
5 -6 10 -26 10 -45 1 -21 3 -28 6 -17 7 27 32 -39 43 -114 6 -36 16 -61 30
-72 l20 -17 -21 -3 c-22 -3 -22 -4 -4 -18 10 -8 16 -10 12 -3 -9 14 31 6 52
-11 11 -8 13 -8 8 0 -4 7 1 18 11 25 15 13 16 12 3 -3 -11 -15 -11 -18 0 -18
7 0 -2 -13 -19 -28 -18 -16 -32 -31 -32 -34 0 -12 30 -17 36 -6 5 7 2 8 -6 3
-8 -5 -11 -3 -8 5 2 8 10 16 18 18 10 4 11 -2 6 -24 -10 -38 -10 -38 -43 -19
l-28 17 27 -24 28 -24 -50 -149 c-67 -199 -100 -386 -100 -565 0 -180 31 -392
80 -545 57 -176 62 -199 52 -242 -6 -26 -5 -50 4 -76 20 -57 36 -219 35 -355
-1 -117 -3 -127 -37 -210 -65 -156 -161 -327 -207 -367 -23 -20 -86 -80 -139
-132 l-98 -96 0 -103 c0 -95 2 -105 25 -131 42 -47 45 -52 45 -63 0 -6 4 -8
10 -5 5 3 10 3 11 -2 0 -4 3 -17 5 -28 3 -11 5 -37 5 -57 0 -24 5 -38 13 -38
10 0 15 -35 20 -137 7 -131 10 -145 53 -262 36 -98 64 -152 131 -254 78 -119
96 -138 203 -227 169 -141 336 -227 529 -274 88 -22 101 -23 160 -11 93 19
201 49 198 56 -2 3 -52 48 -113 100 -187 161 -224 199 -290 298 -52 79 -155
282 -155 308 0 3 10 -7 22 -23 29 -37 55 -68 94 -113 17 -20 46 -58 64 -86 67
-100 211 -264 232 -265 10 0 98 -93 98 -102 0 -5 6 -8 14 -8 8 0 21 -8 28 -18
7 -9 24 -25 38 -33 14 -9 40 -30 58 -47 17 -16 32 -28 32 -26 0 3 15 -6 33
-19 17 -14 49 -31 70 -38 21 -7 43 -19 49 -26 8 -10 -11 -13 -97 -13 -218 0
-325 -56 -532 -281 -110 -118 -158 -211 -173 -335 -6 -49 -13 -99 -16 -111 -7
-36 11 -27 24 12 7 19 35 81 62 139 44 93 56 110 107 149 84 64 96 68 215 83
95 12 118 12 176 -2 150 -34 182 -49 274 -134 47 -44 103 -104 124 -133 69
-96 155 -176 229 -214 79 -40 87 -48 80 -83 -4 -17 4 -41 27 -76 18 -29 73
-133 122 -232 l89 -180 -29 -73 c-45 -110 -77 -119 -264 -74 -136 33 -214 59
-325 108 -143 62 -255 94 -357 102 -89 7 -96 6 -173 -25 -90 -36 -179 -103
-210 -158 -50 -90 -60 -246 -21 -358 13 -38 31 -86 41 -108 9 -21 15 -40 13
-41 -3 -4 -561 67 -567 72 -2 1 16 77 39 168 24 91 41 167 39 168 -14 11 -213
57 -219 50 -4 -4 -37 -89 -75 -188 -37 -99 -69 -181 -70 -183 -1 -2 -50 3
-109 11 l-106 13 0 -143 0 -143 49 0 c28 0 53 -6 59 -13 9 -10 -4 -62 -48
-203 l-60 -189 0 -1102 0 -1102 206 -531 c113 -292 205 -533 203 -535 -2 -2
-64 9 -137 25 -95 20 -134 25 -137 17 -12 -38 -74 -311 -72 -313 2 -2 124 -32
271 -66 l269 -63 106 -137 105 -138 96 0 c52 0 112 3 133 6 36 6 37 8 23 29
-8 12 -44 70 -81 130 l-67 108 214 -6 c198 -6 236 -4 543 28 181 18 331 32
333 30 2 -1 -22 -57 -52 -124 l-55 -122 151 3 151 3 92 165 c62 112 98 166
111 168 49 8 250 54 254 58 5 6 79 249 87 286 6 33 16 33 -149 9 -71 -9 -128
-16 -128 -14 0 9 393 979 400 986 4 4 26 -49 49 -118 24 -69 45 -125 47 -125
2 0 51 24 109 52 79 39 105 57 105 72 0 23 -25 109 -97 331 -30 93 -53 178
-50 190 2 11 27 94 56 184 28 91 51 172 50 180 0 9 -31 38 -69 66 -79 57 -90
62 -90 42 0 -9 -19 -48 -41 -87 -45 -77 -51 -78 -70 -6 -4 17 -77 292 -163
611 -85 318 -154 580 -153 582 2 1 32 -4 68 -11 35 -7 68 -10 72 -6 8 7 -7
182 -17 198 -3 5 -55 39 -115 76 -124 77 -106 49 -163 253 l-23 83 -138 46
c-76 25 -140 44 -143 41 -3 -3 5 -46 16 -97 12 -50 20 -93 18 -95 -2 -3 -47
12 -99 31 -125 48 -299 104 -496 160 -186 53 -178 45 -158 172 15 92 32 135
77 185 39 45 128 80 203 81 79 0 197 -61 346 -180 36 -29 102 -71 146 -94 71
-37 91 -43 174 -50 110 -9 135 -16 118 -36 -9 -10 12 -36 97 -121 l108 -107
47 -125 c43 -117 48 -141 74 -351 l28 -225 57 -85 c31 -47 60 -91 64 -97 5 -9
-15 -23 -61 -45 -37 -18 -69 -34 -71 -34 -2 -1 21 -120 50 -263 40 -195 56
-260 66 -256 7 3 11 1 8 -3 -3 -5 48 -25 112 -45 64 -20 207 -78 318 -130 110
-52 210 -97 221 -101 23 -7 65 10 163 69 39 24 82 38 148 50 51 10 94 16 96
14 2 -2 19 -34 40 -70 32 -58 36 -74 36 -135 0 -39 -7 -97 -16 -129 -11 -44
-14 -81 -9 -140 9 -105 14 -113 69 -112 42 0 76 -15 76 -33 0 -5 -25 -38 -55
-75 l-55 -67 35 -62 c19 -33 38 -62 42 -63 5 -2 49 33 98 76 50 44 91 79 91
78 1 -1 38 -86 82 -189 54 -124 105 -266 153 -425 103 -342 219 -767 211 -774
-4 -3 -63 -30 -132 -58 -69 -29 -129 -56 -133 -60 -6 -6 54 -171 69 -190 2 -2
54 14 116 35 62 22 117 39 123 39 5 0 15 -33 22 -74 7 -40 13 -75 15 -76 3 -3
252 -34 254 -32 1 1 -11 47 -27 102 -32 115 -31 134 11 131 16 -1 27 1 24 5
-4 6 47 21 78 24 3 0 10 3 14 8 11 10 24 9 24 -4 0 -5 -4 -8 -9 -5 -5 3 -14
-1 -21 -9 -10 -12 -9 -15 3 -15 9 0 14 -6 11 -13 -2 -7 4 -22 16 -32 13 -12
20 -31 20 -57 0 -21 5 -38 10 -38 6 0 10 -18 10 -40 0 -22 5 -40 10 -40 6 0
10 7 10 17 0 14 2 14 20 -2 21 -19 29 -95 10 -95 -5 0 -10 -9 -10 -20 0 -11 5
-20 10 -20 6 0 10 9 10 20 0 36 18 21 25 -21 5 -29 11 -39 21 -35 13 5 20 -23
15 -61 -1 -7 3 -13 10 -13 6 0 9 -6 6 -14 -7 -17 25 -48 44 -44 9 2 15 -8 17
-27 4 -38 22 -85 33 -85 5 0 9 -21 9 -47 0 -34 7 -55 26 -80 21 -28 22 -33 8
-33 -12 0 -4 -12 25 -39 27 -25 38 -41 29 -44 -10 -4 -11 -7 0 -18 6 -7 12
-23 12 -36 0 -13 5 -23 10 -23 6 0 10 -18 10 -41 0 -32 6 -47 29 -70 17 -16
33 -38 36 -49 6 -20 18 -20 1161 -20 l1154 0 0 6250 0 6250 -3904 0 -3904 0
-3 -44z m138 -68 c-3 -8 -6 -5 -6 6 -1 11 2 17 5 13 3 -3 4 -12 1 -19z m493
-102 c0 -2 -8 -10 -17 -17 -16 -13 -17 -12 -4 4 13 16 21 21 21 13z m-400 -91
c0 -8 -9 -15 -20 -15 -20 0 -26 11 -13 23 12 13 33 7 33 -8z m18 -55 c15 -19
19 -31 12 -35 -7 -4 -14 2 -17 14 -3 12 -12 21 -19 21 -8 0 -14 7 -14 15 0 22
12 17 38 -15z m3447 -130 c9 -16 13 -30 11 -30 -3 0 -12 14 -21 30 -9 17 -13
30 -11 30 3 0 12 -13 21 -30z m-3355 -60 c0 -5 -7 -10 -16 -10 -8 0 -12 5 -9
10 3 6 10 10 16 10 5 0 9 -4 9 -10z m3459 -190 c-1 -17 -23 32 -33 70 -3 14 3
7 14 -15 11 -22 19 -47 19 -55z m-954 70 c-3 -5 -18 -9 -33 -9 l-27 1 30 8
c17 4 31 8 33 9 2 0 0 -3 -3 -9z m-68 -16 c-3 -3 -12 -4 -19 -1 -8 3 -5 6 6 6
11 1 17 -2 13 -5z m-124 -89 c4 -7 10 -6 15 1 7 11 60 13 77 2 6 -3 23 -4 39
-2 16 2 39 -2 50 -9 12 -6 28 -12 36 -13 26 -5 90 -37 90 -46 0 -4 6 -8 14 -8
8 0 18 -9 21 -20 3 -11 12 -26 18 -32 46 -49 69 -187 48 -286 -22 -100 -22
-99 -62 -65 -41 36 -98 56 -133 47 -18 -4 -40 3 -79 25 -30 17 -60 38 -67 46
-20 24 -96 64 -159 84 l-61 19 -116 -200 c-80 -139 -126 -230 -150 -299 -37
-108 -38 -113 -25 -105 5 3 2 -22 -7 -56 -15 -60 -15 -64 7 -125 13 -37 21
-74 17 -87 -8 -33 52 -121 147 -217 59 -59 95 -85 170 -123 78 -39 104 -47
134 -44 21 3 48 2 59 -3 23 -8 83 9 138 39 17 9 38 17 46 17 8 1 14 6 12 13
-4 22 36 -10 42 -33 3 -11 6 -102 6 -201 0 -100 4 -203 9 -230 5 -27 12 -67
15 -90 4 -22 10 -54 15 -70 4 -16 7 -41 5 -57 -1 -15 1 -27 6 -27 4 0 10 -13
12 -30 4 -28 -2 -35 -26 -31 -5 1 -6 -5 -3 -13 4 -9 -1 -23 -10 -32 -14 -13
-14 -17 -2 -24 11 -7 10 -10 -5 -16 -16 -6 -17 -8 -2 -16 21 -12 22 -42 1 -34
-18 7 -20 -5 -3 -22 9 -9 9 -12 -1 -12 -7 0 -9 -5 -5 -11 7 -13 -45 -149 -58
-149 -4 0 -8 -5 -8 -11 0 -14 -95 -173 -130 -218 -23 -29 -120 -196 -120 -206
0 -2 11 2 25 8 14 7 25 17 25 23 0 6 37 68 83 137 45 68 107 165 137 215 30
50 58 91 63 92 4 0 7 -9 7 -21 0 -11 -4 -18 -9 -15 -4 3 -39 -45 -76 -107 -38
-61 -93 -148 -123 -192 -52 -76 -56 -86 -77 -200 -48 -254 -89 -457 -92 -448
-2 5 12 121 31 258 19 137 34 251 32 253 -2 1 -23 -21 -46 -50 -23 -29 -49
-57 -58 -62 -13 -7 -12 -4 3 14 l20 23 -25 -13 c-14 -7 -38 -23 -55 -35 -42
-31 -119 -66 -157 -72 -18 -2 -38 -11 -45 -20 -8 -10 -19 -12 -34 -8 -14 5
-19 4 -15 -4 5 -7 -1 -11 -15 -11 -12 0 -31 -8 -42 -17 -18 -17 -19 -17 -32 1
-10 14 -21 17 -40 12 -17 -4 -24 -3 -20 4 8 13 -11 13 -38 -1 -16 -9 -22 -9
-25 0 -3 9 -7 9 -18 0 -10 -8 -17 -7 -29 5 -9 9 -25 16 -35 16 -57 0 -198 99
-333 233 -138 138 -303 324 -325 367 -24 50 -22 168 7 320 26 139 28 149 37
235 3 33 9 64 11 69 3 4 5 45 3 90 -3 152 -3 192 5 185 2 -3 6 -14 8 -25 2
-10 8 -27 12 -37 4 -10 5 -54 1 -97 -3 -44 -2 -81 3 -84 19 -12 43 89 61 249
11 103 17 117 47 120 10 0 24 5 31 9 7 4 16 5 19 2 4 -3 14 1 24 10 10 9 40
27 66 40 26 13 44 24 38 24 -5 1 -1 5 10 9 11 5 20 13 20 20 0 6 5 12 10 13 6
1 19 13 30 27 11 14 25 33 32 41 31 37 64 90 93 145 25 45 30 63 22 76 -8 12
-5 35 9 84 21 68 21 68 1 124 -11 31 -23 78 -26 105 -3 28 -10 52 -15 55 -5 4
-25 39 -45 79 -20 39 -76 122 -124 183 -48 62 -86 115 -85 119 1 4 -2 22 -7
39 -5 17 -5 31 0 31 4 0 11 12 15 27 3 15 37 57 74 93 50 49 82 72 126 88 61
23 110 26 133 9 7 -6 12 -6 12 1 0 10 51 -4 78 -21 8 -5 19 -3 29 5 9 7 24 12
35 10 10 -2 30 6 44 17 15 11 30 19 34 16 4 -3 21 2 36 10 16 8 37 15 46 15 9
0 19 4 22 9 6 10 56 23 106 27 34 3 73 10 78 14 1 2 16 4 32 5 17 1 33 4 38 5
4 1 14 2 24 1 9 -1 19 3 23 8 7 12 27 10 38 -4z m187 -485 c11 -6 32 -32 47
-58 24 -40 28 -58 27 -114 -1 -56 -6 -72 -30 -106 -59 -82 -147 -115 -244 -92
-40 10 -59 22 -99 66 -41 44 -50 62 -56 104 -8 61 7 90 63 120 20 11 48 29 63
41 15 12 51 24 88 29 35 5 66 11 69 14 9 10 52 7 72 -4z m-1312 -111 c81 -40
122 -102 122 -183 -1 -92 -108 -206 -193 -206 -34 0 -45 18 -58 85 -6 35 -18
65 -30 74 -10 9 -22 30 -25 47 -5 26 -1 37 25 63 17 17 31 42 31 54 0 12 5 39
11 60 13 47 33 48 117 6z m4463 -126 c13 -16 12 -17 -3 -4 -17 13 -22 21 -14
21 2 0 10 -8 17 -17z m-2259 -96 c65 -86 93 -194 84 -324 -15 -216 -108 -496
-201 -604 -62 -71 -99 -88 -130 -59 -27 25 -49 110 -41 155 8 39 5 41 -28 19
-30 -19 -30 -18 -46 126 l-11 105 117 295 c119 300 154 364 192 353 10 -3 38
-32 64 -66z m-3304 -147 c31 0 72 -54 72 -94 0 -31 36 -133 71 -198 5 -10 9
-26 9 -35 0 -15 2 -16 10 -3 6 10 12 11 19 5 22 -23 114 -292 117 -340 1 -27
11 -74 23 -104 23 -62 19 -81 -13 -54 -11 10 -38 26 -58 36 -49 22 -74 72 -98
195 -10 54 -23 109 -29 123 -5 15 -7 29 -5 32 3 3 0 15 -6 27 -7 12 -21 54
-32 93 -42 155 -118 254 -165 216 -15 -13 -15 -10 -9 26 10 52 33 88 53 81 8
-3 27 -6 41 -6z m5739 -92 c-3 -7 -5 -2 -5 12 0 14 2 19 5 13 2 -7 2 -19 0
-25z m768 -53 c9 -40 -3 -27 -15 15 -5 19 -6 29 -1 24 5 -5 12 -22 16 -39z
m-718 3 c-3 -7 -5 -2 -5 12 0 14 2 19 5 13 2 -7 2 -19 0 -25z m-804 15 c-7 -2
-21 -2 -30 0 -10 3 -4 5 12 5 17 0 24 -2 18 -5z m-5079 -74 c3 -19 5 -44 5
-56 1 -28 27 -30 34 -3 7 28 27 25 27 -4 0 -14 6 -31 13 -38 22 -22 47 -64 53
-89 9 -41 11 -132 3 -174 -7 -34 -3 -50 26 -110 19 -38 40 -77 47 -86 21 -25
81 -59 105 -59 63 0 112 -66 99 -135 -9 -44 -25 -51 -69 -30 -71 33 -185 181
-277 359 -80 154 -95 206 -95 326 0 129 18 189 29 99z m6671 -39 c3 -6 -1 -7
-9 -4 -18 7 -21 14 -7 14 6 0 13 -4 16 -10z m-4345 -22 c44 -48 9 -128 -57
-128 -52 0 -79 34 -74 95 5 52 92 74 131 33z m4400 -23 c13 -14 21 -25 18 -25
-2 0 -15 11 -28 25 -13 14 -21 25 -18 25 2 0 15 -11 28 -25z m-5428 -25 c28
-29 30 -34 24 -80 -8 -60 10 -68 46 -20 24 34 48 39 48 12 0 -41 -158 -148
-234 -158 l-46 -7 0 42 c0 39 2 41 29 41 39 0 44 10 20 46 -27 42 -25 99 6
129 33 34 70 32 107 -5z m5325 -17 c-3 -10 -5 -2 -5 17 0 19 2 27 5 18 2 -10
2 -26 0 -35z m-4533 -38 c3 -8 14 -15 24 -15 10 0 27 -9 37 -20 13 -14 31 -20
61 -20 29 0 49 -6 61 -19 32 -33 57 -34 121 -1 33 16 72 30 88 30 16 0 38 7
48 15 11 8 37 15 58 15 35 0 37 -2 27 -19 -7 -10 -29 -29 -50 -42 -21 -12 -35
-28 -32 -33 4 -6 3 -8 -1 -4 -4 3 -37 -7 -72 -24 -49 -23 -75 -29 -103 -25
-50 6 -301 147 -301 168 0 15 27 10 34 -6z m4289 -42 c-7 -2 -19 -2 -25 0 -7
3 -2 5 12 5 14 0 19 -2 13 -5z m244 -35 c-3 -8 -6 -5 -6 6 -1 11 2 17 5 13 3
-3 4 -12 1 -19z m-2046 -35 c-12 -20 -14 -14 -5 12 4 9 9 14 11 11 3 -2 0 -13
-6 -23z m-3584 9 c17 -11 35 -62 22 -62 -17 0 -76 28 -83 39 -16 25 30 43 61
23z m5620 -24 c-3 -8 -6 -5 -6 6 -1 11 2 17 5 13 3 -3 4 -12 1 -19z m-10 -50
c-3 -7 -5 -2 -5 12 0 14 2 19 5 13 2 -7 2 -19 0 -25z m-10 -40 c-3 -8 -6 -5
-6 6 -1 11 2 17 5 13 3 -3 4 -12 1 -19z m-10 -40 c-3 -8 -6 -5 -6 6 -1 11 2
17 5 13 3 -3 4 -12 1 -19z m-2090 -90 c-3 -8 -6 -5 -6 6 -1 11 2 17 5 13 3 -3
4 -12 1 -19z m1543 -23 c8 -2 -12 -2 -45 1 -33 2 -64 9 -68 13 -8 8 73 -3 113
-14z m-565 5 c-11 -5 -29 -8 -40 -8 -16 0 -15 2 5 8 34 11 60 11 35 0z m-80
-20 c-11 -5 -29 -9 -40 -9 l-20 0 20 9 c11 5 29 9 40 9 l20 0 -20 -9z m698 3
c-7 -2 -19 -2 -25 0 -7 3 -2 5 12 5 14 0 19 -2 13 -5z m-1263 -7 c0 -3 -17
-10 -37 -17 -21 -6 -75 -36 -121 -66 -101 -65 -101 -55 0 14 71 48 158 86 158
69z m1540 -56 c5 8 10 11 10 5 0 -30 -17 -37 -51 -22 -55 24 -67 27 -73 14 -2
-7 -5 0 -5 15 l-1 28 55 -27 c48 -24 57 -25 65 -13z m140 10 c-6 -11 -13 -20
-16 -20 -2 0 0 9 6 20 6 11 13 20 16 20 2 0 0 -9 -6 -20z m114 -229 c22 -22
38 -43 35 -45 -7 -7 -147 122 -161 147 -13 25 64 -38 126 -102z m-437 -37 c-7
-7 55 -44 73 -44 5 0 10 4 10 10 0 5 -8 7 -17 4 -14 -5 -15 -4 -4 4 20 15 43
3 38 -19 -3 -11 -1 -17 4 -13 5 3 13 -6 19 -20 5 -14 12 -26 16 -26 3 0 4 7 0
15 -3 9 0 15 10 15 9 0 12 -5 8 -12 -6 -10 -4 -10 7 0 16 14 43 16 34 2 -9
-14 9 -12 24 3 10 10 11 9 6 -5 -5 -13 2 -22 29 -35 20 -9 36 -20 36 -25 0 -4
5 -8 11 -8 5 0 7 4 4 10 -3 5 0 7 9 4 8 -3 12 -12 9 -20 -3 -8 1 -14 10 -14
14 0 32 -26 29 -42 -4 -18 19 -6 26 13 8 20 8 20 20 -5 6 -14 18 -26 26 -26
10 0 13 -6 10 -15 -5 -11 -2 -13 10 -9 10 4 16 1 16 -9 0 -9 2 -24 5 -34 3
-11 1 -9 -6 5 -12 22 -49 31 -49 11 0 -5 5 -7 11 -3 15 9 29 -14 29 -49 0 -19
7 -30 23 -37 l22 -9 -23 0 c-13 -1 -21 -5 -18 -10 3 -5 16 -7 28 -3 17 4 20 2
15 -12 -5 -12 -3 -16 5 -14 7 3 20 -2 28 -10 10 -11 11 -17 3 -19 -6 -2 -9
-12 -6 -21 2 -11 -4 -21 -19 -27 -13 -5 -24 -19 -25 -30 -3 -19 -3 -19 5 -1
10 22 53 31 45 9 -3 -9 0 -11 10 -8 11 5 13 0 9 -20 -3 -19 -8 -23 -15 -16
-19 19 -27 12 -10 -8 9 -11 20 -18 25 -15 4 3 8 0 8 -6 0 -6 4 -8 10 -5 6 3 7
-1 3 -10 -4 -12 -8 -13 -13 -5 -5 8 -10 8 -14 2 -9 -14 19 -23 33 -9 8 8 8 2
2 -21 -6 -19 -6 -34 0 -37 5 -4 9 4 9 17 l1 23 14 -25 c7 -14 9 -26 4 -28 -14
-5 -11 -22 5 -22 8 0 13 -9 12 -22 -3 -30 4 -43 14 -28 5 8 9 7 13 -4 4 -11 1
-16 -10 -16 -14 0 -14 -2 2 -20 17 -18 16 -19 -9 -26 -14 -3 -26 -10 -26 -16
0 -5 5 -6 10 -3 6 3 10 1 10 -4 0 -6 -7 -11 -16 -11 -13 0 -14 -3 -5 -14 7 -8
13 -45 14 -83 2 -54 6 -72 22 -85 12 -11 16 -21 10 -25 -5 -5 -10 -20 -10 -34
-1 -19 3 -25 14 -21 16 6 9 -9 -18 -42 -9 -11 -11 -16 -5 -13 21 12 24 -43 4
-63 -10 -10 -16 -21 -12 -24 7 -8 -30 -36 -40 -30 -4 2 -6 -5 -5 -16 1 -11 4
-20 7 -20 5 0 5 -22 1 -63 -1 -4 -7 -7 -13 -6 -26 3 -39 -1 -33 -11 4 -6 16
-8 28 -5 20 6 21 5 5 -8 -10 -8 -18 -19 -18 -25 0 -6 -7 -18 -16 -26 -8 -9
-11 -16 -5 -16 6 0 11 -7 11 -15 0 -8 -5 -15 -11 -15 -6 0 -8 -10 -5 -22 3
-13 3 -17 0 -9 -5 11 -8 11 -15 0 -8 -12 -10 -12 -18 -1 -7 11 -9 10 -14 -3
-4 -9 -3 -13 3 -10 9 6 12 2 14 -27 1 -6 -9 -12 -21 -14 -15 -3 -20 1 -18 14
1 9 -6 26 -16 37 -27 30 -35 78 -15 94 18 15 21 31 5 31 -5 0 -8 -4 -4 -9 3
-5 1 -12 -4 -16 -10 -5 -51 67 -51 89 0 5 -7 17 -15 26 -8 9 -16 26 -18 38 -2
12 -15 35 -30 52 -15 16 -25 30 -21 30 9 0 -109 108 -131 120 -15 8 -29 8 -50
-1 -17 -7 -36 -11 -42 -10 -7 1 -13 -2 -13 -6 0 -4 -35 -8 -77 -8 l-77 0 -13
50 c-7 28 -15 75 -19 105 -3 30 -15 82 -25 115 -23 73 -23 92 -3 158 8 29 20
70 26 92 5 22 14 48 19 58 5 10 7 22 4 27 -4 6 -3 10 2 10 15 0 23 271 13 420
-4 57 -2 74 8 73 6 -2 12 2 12 7 0 18 17 11 29 -12 l12 -23 -5 22 c-2 12 1 24
8 27 17 7 20 7 13 0z m-1787 -28 c0 -5 -79 -56 -87 -56 -5 0 12 14 37 30 46
31 50 33 50 26z m730 -6 c0 -5 -5 -10 -11 -10 -5 0 -7 5 -4 10 3 6 8 10 11 10
2 0 4 -4 4 -10z m73 -7 c-7 -2 -21 -2 -30 0 -10 3 -4 5 12 5 17 0 24 -2 18 -5z
m1157 -8 c-14 -17 -40 -20 -40 -4 0 5 4 8 8 5 4 -2 14 -1 22 5 21 13 24 11 10
-6z m-1133 -37 c-3 -8 -6 -5 -6 6 -1 11 2 17 5 13 3 -3 4 -12 1 -19z m-43 -31
c9 9 77 4 91 -6 6 -5 35 -16 65 -26 30 -9 73 -26 95 -36 22 -10 44 -19 48 -19
9 0 68 -24 99 -41 10 -5 26 -9 37 -9 10 0 24 -7 31 -15 7 -8 18 -15 25 -15 19
0 123 -99 158 -149 17 -25 41 -70 53 -100 l22 -54 7 59 c9 81 12 95 14 53 0
-19 -8 -82 -19 -140 -22 -121 -115 -343 -207 -493 -134 -221 -204 -398 -253
-644 l-30 -153 15 -128 c12 -99 26 -163 66 -285 28 -87 53 -155 55 -153 2 2
-10 62 -27 133 -30 126 -31 133 -26 324 4 194 4 196 45 332 46 152 130 319
274 546 43 67 92 150 109 185 17 34 35 63 40 65 4 2 5 10 2 18 -6 15 5 18 23
6 18 -12 47 -134 46 -190 -2 -61 -20 -101 -59 -133 -16 -12 -20 -19 -10 -16
43 17 50 17 24 2 -16 -9 -35 -14 -43 -11 -8 3 -13 2 -10 -2 6 -10 -62 -45 -73
-37 -4 2 9 -65 29 -150 20 -85 34 -157 31 -160 -3 -4 1 -10 9 -15 13 -8 15
-47 15 -232 l0 -223 -39 -120 c-37 -116 -85 -217 -109 -232 -36 -23 -118 -163
-253 -434 -52 -102 -104 -197 -116 -211 -13 -14 -45 -51 -73 -84 -78 -91 -196
-206 -250 -243 -104 -72 -252 -136 -360 -157 -185 -36 -233 -42 -358 -42 -152
-1 -195 9 -316 70 -45 23 -76 48 -103 83 -21 28 -52 64 -68 80 -45 45 -165
397 -250 730 -61 241 -71 292 -90 480 -12 116 -26 222 -32 237 -7 20 -6 32 5
50 25 38 50 149 43 196 -4 34 -3 42 10 42 9 0 12 -5 8 -12 -6 -9 -3 -9 9 0 9
8 20 11 26 8 15 -10 19 14 13 96 -6 94 11 236 41 338 21 72 22 74 28 40 l6
-35 12 48 c15 51 64 100 115 113 71 17 187 -60 220 -148 16 -40 16 -49 3 -80
-8 -20 -32 -48 -52 -64 -32 -24 -48 -29 -111 -31 -41 -1 -74 2 -74 7 0 5 -8
11 -18 15 -23 7 -82 87 -83 112 -1 34 -30 -62 -44 -147 -18 -103 -19 -243 -4
-273 12 -22 12 -22 -10 -3 -26 24 -26 17 -1 -40 21 -46 95 -124 117 -124 7 0
13 -9 13 -20 0 -11 -4 -20 -10 -20 -5 0 -10 -5 -10 -11 0 -15 87 -4 107 13 18
15 113 157 113 169 0 5 20 46 44 92 52 98 70 203 67 391 -1 85 1 121 10 127 9
5 10 14 1 36 -20 48 -92 385 -85 396 4 6 0 8 -8 5 -8 -3 -44 -15 -80 -27 -54
-18 -76 -32 -120 -78 -40 -42 -55 -52 -57 -40 -5 23 97 174 149 223 90 85 87
83 99 69 48 -58 260 -94 274 -47 10 33 -6 -135 -31 -328 -21 -161 -26 -246
-29 -489 -4 -320 -24 -570 -54 -654 -10 -29 -27 -76 -39 -104 -11 -29 -17 -53
-13 -53 4 1 24 26 46 58 55 82 82 204 106 482 11 124 20 293 20 375 0 109 8
207 29 360 26 188 35 227 84 370 57 163 74 198 36 73 -11 -39 -19 -71 -17 -73
2 -2 21 3 43 11 22 8 44 16 50 17 5 1 23 10 40 19 16 10 46 26 65 37 19 11 44
28 55 38 11 10 49 41 85 68 36 27 68 53 71 58 3 4 10 7 15 5 13 -4 74 23 74
33 0 5 10 9 22 9 12 0 41 10 66 21 64 31 125 48 138 38 6 -5 14 -6 18 -2z
m-959 -30 c-10 -5 -35 -25 -56 -44 -22 -20 -39 -31 -39 -27 0 15 105 103 109
92 2 -6 -4 -15 -14 -21z m597 -37 c-25 -24 -32 -25 -32 -6 0 15 14 24 39 25
10 1 8 -5 -7 -19z m955 -52 c-3 -8 -6 -5 -6 6 -1 11 2 17 5 13 3 -3 4 -12 1
-19z m-3070 -30 c-2 -12 -9 -24 -15 -26 -13 -4 -15 8 -6 32 9 24 24 19 21 -6z
m1368 -16 l-28 -27 23 33 c12 18 25 31 28 27 3 -3 -7 -18 -23 -33z m242 -174
c-3 -7 -5 -2 -5 12 0 14 2 19 5 13 2 -7 2 -19 0 -25z m2940 -100 c-3 -7 -5 -2
-5 12 0 14 2 19 5 13 2 -7 2 -19 0 -25z m-4561 -91 c8 -4 14 -15 14 -23 0 -8
-4 -13 -8 -10 -5 3 -15 -39 -22 -94 -15 -117 -8 -334 15 -425 20 -82 19 -85
-14 -39 -24 33 -29 51 -34 119 -2 44 -1 136 3 205 5 69 12 184 17 255 5 87 9
112 11 75 2 -35 9 -58 18 -63z m-1719 16 c-3 -10 -5 -4 -5 12 0 17 2 24 5 18
2 -7 2 -21 0 -30z m10 -60 c-3 -10 -5 -4 -5 12 0 17 2 24 5 18 2 -7 2 -21 0
-30z m10 -60 c-3 -10 -5 -4 -5 12 0 17 2 24 5 18 2 -7 2 -21 0 -30z m1743 2
c0 -5 -5 -3 -10 5 -5 8 -10 20 -10 25 0 6 5 3 10 -5 5 -8 10 -19 10 -25z
m-1733 -62 c-3 -10 -5 -4 -5 12 0 17 2 24 5 18 2 -7 2 -21 0 -30z m1763 -8 c0
-5 -5 -3 -10 5 -5 8 -10 20 -10 25 0 6 5 3 10 -5 5 -8 10 -19 10 -25z m20 -50
c0 -5 -5 -3 -10 5 -5 8 -10 20 -10 25 0 6 5 3 10 -5 5 -8 10 -19 10 -25z
m-1769 -240 c0 -110 -4 -216 -9 -235 -7 -25 -10 42 -10 230 0 175 3 255 9 235
5 -16 9 -120 10 -230z m344 112 c17 -15 22 -25 12 -21 -12 4 -16 2 -12 -7 9
-26 86 -451 82 -455 -4 -4 -54 216 -88 386 -16 81 -27 112 -47 135 -26 28 -26
29 -2 10 13 -11 38 -33 55 -48z m5057 -189 c53 -46 68 -68 116 -168 68 -142
78 -199 51 -315 -51 -226 -203 -396 -383 -431 -61 -12 -118 -2 -153 28 -17 14
-30 2 -36 -32 -2 -14 -2 -2 1 25 7 68 7 71 -12 230 -10 77 -15 158 -12 180 4
28 2 34 -4 20 -7 -17 -9 -14 -9 15 -1 26 2 31 9 20 8 -12 10 -9 10 12 0 33 34
114 50 120 14 4 52 103 54 140 0 14 5 30 9 34 4 5 5 0 2 -11 -5 -15 -1 -14 19
8 14 15 26 33 26 40 0 7 -4 6 -11 -3 -9 -13 -10 -13 -7 0 6 24 168 140 195
140 15 0 48 -20 85 -52z m-362 12 c-8 -5 -19 -10 -25 -10 -5 0 -3 5 5 10 8 5
20 10 25 10 6 0 3 -5 -5 -10z m-4210 -30 c0 -5 -2 -10 -4 -10 -3 0 -8 5 -11
10 -3 6 -1 10 4 10 6 0 11 -4 11 -10z m-20 -31 c0 -5 -7 -9 -15 -9 -15 0 -20
12 -9 23 8 8 24 -1 24 -14z m1251 -146 c-12 -20 -14 -14 -5 12 4 9 9 14 11 11
3 -2 0 -13 -6 -23z m4115 -90 c-13 -74 -18 -94 -23 -90 -5 6 18 127 24 127 3
0 2 -17 -1 -37z m-79 -40 c-3 -10 -5 -2 -5 17 0 19 2 27 5 18 2 -10 2 -26 0
-35z m-337 33 c0 -2 -7 -7 -16 -10 -8 -3 -12 -2 -9 4 6 10 25 14 25 6z m-3573
-28 c-3 -8 -6 -5 -6 6 -1 11 2 17 5 13 3 -3 4 -12 1 -19z m701 -44 c27 -18 30
-69 5 -96 -41 -45 -123 3 -102 60 19 50 57 65 97 36z m2864 -6 c-7 -7 -12 -8
-12 -2 0 14 12 26 19 19 2 -3 -1 -11 -7 -17z m-5243 -198 c73 -247 113 -348
160 -415 l36 -50 -35 25 c-19 13 -70 60 -114 103 l-78 80 -86 -2 c-77 -2 -103
3 -243 46 -87 26 -156 49 -154 51 4 4 193 -28 410 -68 97 -18 101 -20 137 -62
21 -24 38 -40 38 -36 0 3 -29 111 -64 240 -35 128 -67 249 -71 268 -16 77 6
15 64 -180z m1667 159 c-4 -29 -18 -73 -31 -98 -29 -56 -32 -50 -6 10 11 24
22 65 26 92 4 26 10 47 12 47 3 0 3 -23 -1 -51z m3911 4 c-3 -10 -5 -4 -5 12
0 17 2 24 5 18 2 -7 2 -21 0 -30z m-397 -37 c0 -11 -19 -15 -25 -6 -3 5 1 10
9 10 9 0 16 -2 16 -4z m387 -38 c-3 -8 -6 -5 -6 6 -1 11 2 17 5 13 3 -3 4 -12
1 -19z m-3117 8 c0 -2 -7 -7 -16 -10 -8 -3 -12 -2 -9 4 6 10 25 14 25 6z
m-1046 -73 c-10 -42 -30 -59 -97 -83 -34 -13 -87 -42 -118 -66 -56 -43 -98
-65 -122 -63 -7 0 2 6 20 12 18 7 58 35 90 63 67 58 85 69 133 78 26 5 43 17
63 46 33 47 40 50 31 13z m197 -40 c-12 -20 -14 -14 -5 12 4 9 9 14 11 11 3
-2 0 -13 -6 -23z m-40 -90 c-12 -20 -14 -14 -5 12 4 9 9 14 11 11 3 -2 0 -13
-6 -23z m413 -35 c-15 -27 -136 -188 -141 -188 -3 0 -1 6 4 13 5 6 38 51 72
100 35 48 65 87 68 87 2 0 1 -6 -3 -12z m-1275 -128 c4 0 31 20 60 45 57 48
67 51 121 30 l35 -14 -52 6 c-34 3 -53 2 -53 -5 0 -6 -16 -20 -35 -32 -26 -16
-45 -41 -69 -93 -29 -62 -33 -67 -29 -34 4 24 2 37 -6 37 -6 0 -11 -4 -11 -10
0 -5 -4 -10 -9 -10 -8 0 11 122 26 164 6 15 9 7 11 -31 2 -29 6 -53 11 -53z
m321 65 c-19 -7 -51 -13 -70 -13 -30 0 -28 2 13 8 27 5 52 11 55 14 3 3 12 6
21 5 9 0 0 -7 -19 -14z m810 -139 c0 -2 -8 -10 -17 -17 -16 -13 -17 -12 -4 4
13 16 21 21 21 13z m2647 -78 c-3 -7 -5 -2 -5 12 0 14 2 19 5 13 2 -7 2 -19 0
-25z m309 1 c36 -30 58 -109 33 -124 -6 -4 -8 -13 -5 -21 7 -19 -8 -18 -54 6
-71 36 -219 21 -273 -28 -19 -17 -19 -16 -12 18 4 19 10 40 13 45 4 6 7 27 8
48 3 68 18 75 155 72 77 -3 126 -8 135 -16z m-3743 -44 c-9 -19 -18 -33 -19
-32 -7 7 20 76 27 71 5 -3 1 -20 -8 -39z m4341 11 c-3 -15 -8 -25 -11 -23 -2
3 -1 17 3 31 3 15 8 25 11 23 2 -3 1 -17 -3 -31z m-47 -148 c-3 -8 -6 -5 -6 6
-1 11 2 17 5 13 3 -3 4 -12 1 -19z m-4370 6 c-3 -3 -12 -4 -19 -1 -8 3 -5 6 6
6 11 1 17 -2 13 -5z m-272 -54 c-27 -12 -43 -12 -25 0 8 5 22 9 30 9 10 0 8
-3 -5 -9z m-785 -86 c0 -3 -13 4 -30 16 -16 12 -30 24 -30 26 0 3 14 -4 30
-16 17 -12 30 -24 30 -26z m914 12 c22 -9 37 -19 34 -22 -6 -6 -108 43 -108
52 0 2 8 1 18 -5 9 -5 35 -16 56 -25z m585 -201 c1 -76 -6 -115 -39 -239 -46
-169 -44 -160 -27 -150 6 4 -6 -12 -27 -37 -58 -66 -59 -66 -45 -36 7 15 16
27 20 27 4 0 17 42 29 93 12 50 32 130 46 177 19 68 24 109 25 215 1 99 3 119
10 85 4 -25 8 -86 8 -135z m-1349 88 c14 -7 21 -13 15 -13 -5 -1 14 -10 43
-21 29 -11 50 -24 48 -28 -3 -4 1 -8 9 -8 8 0 12 4 10 8 -3 4 4 5 14 2 11 -3
22 -11 25 -19 3 -8 17 -14 31 -14 15 0 24 -4 21 -9 -3 -5 15 -11 40 -14 24 -2
53 -12 63 -21 10 -9 25 -16 34 -16 10 0 17 -8 17 -20 0 -11 7 -23 15 -26 8 -4
12 -10 9 -15 -3 -5 -1 -9 5 -9 5 0 13 5 16 10 3 6 12 10 18 10 7 0 6 -4 -3
-10 -12 -8 -9 -10 13 -10 30 0 32 1 111 70 28 25 64 56 80 70 l30 25 -32 -40
c-18 -22 -58 -62 -89 -88 -57 -46 -60 -48 -120 -46 -43 2 -64 6 -67 16 -4 9
-13 12 -25 8 -10 -3 -31 0 -47 6 -16 7 -38 14 -48 16 -29 5 -149 88 -236 162
-90 77 -93 80 -55 56 17 -10 41 -25 55 -32z m745 37 c-3 -5 -12 -10 -18 -10
-7 0 -6 4 3 10 19 12 23 12 15 0z m685 -295 c-18 -47 -35 -84 -37 -82 -2 2 11
43 28 91 18 47 34 84 36 82 3 -3 -10 -43 -27 -91z m-955 75 c3 -6 -1 -7 -9 -4
-18 7 -21 14 -7 14 6 0 13 -4 16 -10z m1432 -247 c-2 -16 -4 -5 -4 22 0 28 2
40 4 28 2 -13 2 -35 0 -50z m-577 4 c0 -2 -10 -12 -22 -23 l-23 -19 19 23 c18
21 26 27 26 19z m587 -104 c-3 -10 -5 -4 -5 12 0 17 2 24 5 18 2 -7 2 -21 0
-30z m2743 -14 c-16 -29 -23 -17 -15 22 6 26 9 29 17 16 6 -11 5 -24 -2 -38z
m-2550 12 c-5 -11 -15 -23 -21 -27 -6 -3 -3 5 6 20 20 30 30 35 15 7z m54 -51
c4 -14 -2 -8 -14 14 -11 22 -20 42 -20 45 0 12 28 -36 34 -59z m2529 -220 c20
-69 39 -134 42 -145 6 -19 6 -19 -5 -2 -16 25 -90 297 -89 327 1 17 4 11 9
-15 5 -22 24 -96 43 -165z m-2658 181 c-12 -12 -105 -52 -105 -45 0 4 96 51
110 53 2 1 0 -3 -5 -8z m139 -145 c-21 -135 -31 -148 -15 -19 14 110 21 146
28 139 3 -3 -3 -57 -13 -120z m2125 -6 c11 -24 11 -24 -3 -6 -9 11 -16 24 -16
30 0 12 5 7 19 -24z m-1836 -168 c35 -51 50 -79 38 -73 -17 9 -51 61 -127 189
-15 25 -14 25 7 -3 13 -16 50 -67 82 -113z m1424 96 c-3 -7 -5 -2 -5 12 0 14
2 19 5 13 2 -7 2 -19 0 -25z m473 -38 c6 -11 8 -20 6 -20 -3 0 -10 9 -16 20
-6 11 -8 20 -6 20 3 0 10 -9 16 -20z m-2213 -47 c-3 -10 -5 -4 -5 12 0 17 2
24 5 18 2 -7 2 -21 0 -30z m1750 -40 c-3 -10 -5 -2 -5 17 0 19 2 27 5 18 2
-10 2 -26 0 -35z m280 -65 c-3 -7 -5 -2 -5 12 0 14 2 19 5 13 2 -7 2 -19 0
-25z m-270 0 c-3 -8 -6 -5 -6 6 -1 11 2 17 5 13 3 -3 4 -12 1 -19z m-932 -3
c-49 -13 -264 -21 -253 -9 6 6 191 21 263 21 l40 1 -50 -13z m1212 -47 c-3 -8
-6 -5 -6 6 -1 11 2 17 5 13 3 -3 4 -12 1 -19z m-300 -100 c-18 -46 -71 -162
-119 -258 -48 -95 -85 -176 -83 -178 2 -3 21 2 42 11 50 20 123 8 200 -32 70
-37 57 -41 -21 -6 -81 36 -153 42 -194 18 -54 -33 -100 -103 -105 -159 l-3
-49 -2 53 c-2 43 3 60 23 86 14 18 25 41 25 50 0 9 24 58 53 109 29 51 86 172
127 269 40 97 77 175 81 173 4 -3 -7 -42 -24 -87z m-1923 57 c-10 -8 -23 -14
-29 -14 -5 0 -1 6 9 14 11 8 24 15 30 15 5 0 1 -7 -10 -15z m-45 -217 c-7 -13
-23 -40 -36 -61 -14 -22 -22 -41 -20 -43 3 -3 68 13 145 35 116 34 156 41 226
41 86 0 86 0 214 -64 113 -58 134 -72 190 -135 59 -66 81 -106 95 -176 4 -17
-8 -1 -26 37 -40 84 -126 184 -193 226 -73 45 -191 82 -262 82 -67 0 -204 -26
-332 -64 -120 -35 -122 -30 -44 78 49 68 64 83 43 44z m3691 -135 c0 -7 -39
17 -46 28 -3 6 5 3 20 -6 14 -10 26 -19 26 -22z m-1529 -10 c13 -16 12 -17 -3
-4 -10 7 -18 15 -18 17 0 8 8 3 21 -13z m194 -200 c61 -54 126 -111 145 -126
19 -15 26 -23 14 -18 -32 15 -309 266 -328 298 -12 19 -6 15 21 -14 21 -22 88
-85 148 -140z m-941 61 c9 -8 15 -23 15 -32 -1 -16 -2 -16 -6 0 -7 27 -36 30
-84 10 -24 -11 -62 -22 -84 -25 -29 -5 -17 2 45 27 102 41 95 40 114 20z
m1190 -230 c24 -24 19 -30 -6 -8 -13 10 -25 20 -27 21 -2 2 1 3 7 3 6 0 18 -7
26 -16z m71 -30 c9 3 19 -3 25 -14 6 -11 7 -20 3 -20 -12 0 -73 39 -73 46 0 4
7 1 15 -6 8 -7 21 -10 30 -6z m-6157 -131 c-10 -2 -26 -2 -35 0 -10 3 -2 5 17
5 19 0 27 -2 18 -5z m389 -9 c-3 -3 -12 -4 -19 -1 -8 3 -5 6 6 6 11 1 17 -2
13 -5z m76 -11 c-7 -2 -19 -2 -25 0 -7 3 -2 5 12 5 14 0 19 -2 13 -5z m85 -10
c-10 -2 -26 -2 -35 0 -10 3 -2 5 17 5 19 0 27 -2 18 -5z m80 -10 c-10 -2 -28
-2 -40 0 -13 2 -5 4 17 4 22 1 32 -1 23 -4z m-48 -75 c17 -12 30 -26 30 -32 0
-5 -12 2 -27 16 -16 14 -35 28 -43 31 -10 4 -11 6 -2 6 7 1 26 -9 42 -21z
m-65 2 c-3 -5 2 -10 12 -10 17 -1 -40 -30 -58 -30 -15 0 2 27 24 38 28 14 29
14 22 2z m-125 -98 c0 -3 -15 -22 -33 -42 -24 -25 -39 -55 -52 -104 -12 -47
-20 -64 -26 -54 -9 15 38 151 67 195 12 20 44 23 44 5z m400 -102 c17 -27 30
-53 28 -58 -1 -5 -20 17 -40 49 -21 33 -33 59 -29 59 5 0 23 -22 41 -50z m177
-13 c-11 -17 -24 -22 -53 -21 -22 1 -42 -3 -45 -8 -4 -5 -9 2 -11 16 -6 30 -6
31 32 11 19 -10 31 -11 35 -5 4 6 12 7 18 4 7 -4 9 -4 5 1 -10 11 11 37 24 29
5 -3 3 -15 -5 -27z m46 -47 c3 -11 3 -20 1 -20 -2 0 -8 9 -14 20 -6 11 -7 20
-2 20 6 0 12 -9 15 -20z m5794 -2 c-3 -8 -6 -5 -6 6 -1 11 2 17 5 13 3 -3 4
-12 1 -19z m-2283 -112 c-3 -15 -8 -25 -11 -23 -2 3 -1 17 3 31 3 15 8 25 11
23 2 -3 1 -17 -3 -31z m-4134 -86 c6 -36 17 -72 23 -80 6 -8 2 -6 -10 5 -27
26 -66 142 -50 148 18 7 23 -3 37 -73z m421 -143 c-11 -26 -25 -47 -31 -47 -6
0 -8 -4 -5 -10 3 -5 1 -10 -4 -10 -17 0 -13 22 9 50 11 14 20 39 20 57 0 17 6
33 13 36 20 7 19 -26 -2 -76z m528 57 c14 -12 -19 -1 -35 12 -18 14 -18 14 6
3 14 -6 27 -13 29 -15z m-770 -110 c6 -6 -10 -24 -23 -24 -7 0 -21 7 -32 15
-18 15 -18 15 0 8 14 -5 17 -3 11 6 -6 10 -2 11 16 6 13 -4 26 -9 28 -11z
m690 -38 c35 -22 102 -178 116 -270 3 -21 8 -43 12 -49 9 -14 13 -99 12 -257
0 -69 0 -134 0 -145 0 -11 -4 -47 -10 -80 -12 -66 -15 -85 -24 -163 -4 -29 -8
-63 -11 -75 -2 -12 -6 -42 -9 -67 -3 -25 -7 -56 -10 -70 -3 -14 -7 -38 -10
-55 -2 -16 -11 -66 -20 -110 -48 -258 -73 -463 -76 -627 -1 -64 1 -120 4 -125
2 -4 3 -80 1 -168 -5 -213 -6 -206 7 -222 7 -7 20 -62 29 -121 29 -172 31
-200 20 -207 -6 -4 -8 -10 -5 -15 3 -4 -7 -16 -21 -25 -15 -9 -23 -12 -20 -6
9 14 0 14 -27 -1 -22 -12 -39 -14 -220 -23 -54 -2 -103 -7 -108 -11 -6 -3 -45
-6 -87 -5 -81 1 -171 27 -183 52 -3 8 -10 23 -16 34 -25 51 -10 153 31 210 36
48 73 121 89 172 15 47 33 175 28 202 -1 7 0 25 4 39 l6 25 16 -22 c11 -17 22
-21 39 -17 21 6 27 -1 59 -68 22 -47 35 -89 35 -115 0 -30 4 -41 15 -41 14 0
21 30 16 68 -1 8 3 20 9 27 7 8 9 18 6 23 -3 6 13 19 37 31 68 33 82 47 67 66
-11 14 -10 14 14 5 34 -12 46 -13 46 -1 0 5 -18 12 -40 16 -46 8 -52 15 -56
62 -1 19 -5 52 -9 74 -4 21 -4 39 -1 39 3 0 24 -16 46 -36 26 -24 40 -31 40
-21 0 22 -76 87 -110 94 -31 6 -64 33 -40 33 15 0 221 190 215 199 -2 4 5 52
16 106 l19 100 -21 52 c-11 28 -29 59 -39 68 -18 16 -23 16 -57 3 -21 -9 -56
-15 -78 -14 -37 1 -40 3 -41 31 -1 17 -4 48 -8 69 -7 42 12 76 43 76 19 0 71
49 71 67 0 7 3 13 8 13 10 0 49 80 55 113 2 16 1 44 -3 63 -8 35 7 64 32 64 6
0 8 10 5 22 -3 11 -2 42 3 69 8 43 5 83 -15 207 -3 17 -15 40 -26 50 -11 11
-21 36 -23 58 -3 21 -7 48 -11 59 -6 16 -5 17 4 5 9 -13 11 -13 11 3 0 9 5 17
11 17 5 0 8 -4 5 -8 -2 -4 11 -6 30 -4 47 6 59 30 45 91 -17 69 -32 101 -47
101 -8 0 -14 -9 -14 -19 0 -11 -4 -22 -9 -25 -14 -9 -32 19 -25 38 5 12 -5 21
-42 37 -69 28 -80 35 -75 51 6 21 1 69 -9 88 -12 22 -4 25 80 35 77 9 122 24
116 40 -2 7 0 17 5 22 11 11 59 10 78 -1z m-1012 -48 c-3 -7 -5 -2 -5 12 0 14
2 19 5 13 2 -7 2 -19 0 -25z m6348 -14 c-83 -75 -158 -126 -208 -145 l-52 -20
42 6 43 5 -12 -27 c-21 -50 -59 -81 -146 -118 -109 -47 -123 -49 -171 -24 -67
34 -120 3 -137 -80 -5 -27 -41 -66 -80 -89 -36 -20 -106 -44 -212 -72 -30 -8
-56 -25 -90 -61 -57 -61 -85 -79 -80 -52 1 10 -7 28 -20 41 -23 23 -28 47 -12
57 18 11 11 25 -12 25 -13 0 -31 7 -41 14 -15 12 -16 18 -7 35 6 12 7 21 3 21
-4 0 1 8 13 18 12 9 35 38 53 64 17 26 35 47 39 47 4 -1 23 0 42 1 l35 3 -40
6 -40 7 56 8 c31 4 73 6 93 3 20 -3 39 0 42 5 4 5 15 8 25 5 11 -3 19 -2 19 3
0 4 54 42 121 84 119 76 121 76 161 66 22 -6 46 -9 54 -6 8 3 14 1 14 -4 0 -6
35 -9 83 -8 45 1 65 3 45 5 -21 2 -38 6 -38 8 0 2 7 19 16 38 18 37 76 68 212
113 67 22 186 51 217 53 6 0 -8 -16 -30 -35z m-6338 -91 c-3 -10 -5 -2 -5 17
0 19 2 27 5 18 2 -10 2 -26 0 -35z m194 -66 c6 -23 15 -44 19 -47 5 -3 11 -17
15 -32 6 -23 2 -29 -25 -43 -17 -9 -66 -27 -107 -41 -116 -38 -115 -37 -112
-97 2 -29 7 -57 11 -63 4 -6 8 -42 9 -80 1 -85 14 -131 41 -145 17 -9 19 -18
15 -52 l-5 -42 23 45 c35 65 31 40 -4 -29 -33 -64 -44 -118 -23 -113 6 1 12
-6 12 -16 0 -10 16 -35 35 -56 19 -21 34 -41 33 -44 -4 -16 14 -92 23 -98 5
-3 9 -17 9 -32 0 -21 2 -24 10 -12 14 22 12 13 -15 -70 l-24 -75 54 -24 c46
-20 57 -30 70 -65 19 -49 69 -106 93 -106 9 0 34 19 55 42 l38 43 -24 -46
c-13 -25 -30 -81 -37 -125 -7 -43 -16 -83 -20 -89 -4 -5 -7 -22 -6 -37 1 -17
-3 -28 -11 -28 -7 0 -13 7 -13 15 0 8 -7 15 -15 15 -8 0 -15 3 -15 8 0 4 -26
34 -56 67 -36 38 -67 85 -87 130 -17 38 -82 171 -145 295 -240 470 -231 443
-227 686 1 88 6 169 11 180 5 10 9 31 8 46 0 15 2 25 6 23 4 -2 16 13 28 33
38 69 52 78 107 75 35 -2 76 6 135 25 47 16 88 27 92 25 4 -2 13 -23 19 -46z
m406 -93 c-3 -3 -12 -4 -19 -1 -8 3 -5 6 6 6 11 1 17 -2 13 -5z m-94 -11 c-7
-2 -19 -2 -25 0 -7 3 -2 5 12 5 14 0 19 -2 13 -5z m-50 -10 c-7 -2 -19 -2 -25
0 -7 3 -2 5 12 5 14 0 19 -2 13 -5z m454 -15 c-3 -8 -6 -5 -6 6 -1 11 2 17 5
13 3 -3 4 -12 1 -19z m-17 -62 c0 -3 -4 -8 -10 -11 -5 -3 -10 -1 -10 4 0 6 5
11 10 11 6 0 10 -2 10 -4z m2835 -116 c-14 -27 -28 -50 -30 -50 -3 0 6 23 20
50 14 28 28 50 30 50 3 0 -6 -22 -20 -50z m-80 -150 c-3 -5 -12 -10 -18 -10
-7 0 -6 4 3 10 19 12 23 12 15 0z m-3398 -46 c-3 -3 -12 -4 -19 -1 -8 3 -5 6
6 6 11 1 17 -2 13 -5z m-44 -11 c-7 -2 -19 -2 -25 0 -7 3 -2 5 12 5 14 0 19
-2 13 -5z m3581 -94 c-25 -50 -47 -89 -49 -87 -5 5 84 178 91 178 2 0 -16 -41
-42 -91z m2287 -49 c26 -25 60 -45 91 -55 52 -15 76 -13 141 11 55 21 76 17
142 -27 60 -39 105 -63 180 -94 36 -15 38 -17 21 -27 -12 -7 -49 -8 -101 -4
-82 6 -156 32 -245 87 -35 21 -35 21 -10 0 14 -11 50 -35 79 -52 51 -29 54
-32 36 -45 -66 -48 -243 -56 -322 -14 -24 12 -43 26 -43 30 0 15 -60 32 -92
26 -26 -5 -39 -17 -60 -51 -32 -52 -58 -65 -133 -65 -45 0 -59 5 -83 28 -25
24 -28 31 -21 58 5 18 21 39 35 49 l26 17 -33 28 -34 28 30 7 c17 4 41 11 55
16 14 5 57 15 95 23 39 8 97 26 130 40 33 14 63 25 67 26 5 0 27 -18 49 -40z
m-5474 -62 c-3 -7 -5 -2 -5 12 0 14 2 19 5 13 2 -7 2 -19 0 -25z m3119 -13
c-9 -14 -23 -37 -33 -51 -17 -27 -24 -23 -37 26 l-7 25 14 -23 13 -23 28 35
c31 41 46 49 22 11z m-2939 -31 c-3 -3 -12 -4 -19 -1 -8 3 -5 6 6 6 11 1 17
-2 13 -5z m5903 -54 c24 -15 7 -19 -20 -5 -15 8 -19 14 -10 14 8 1 22 -3 30
-9z m-3227 -75 c36 -45 30 -45 -13 0 -19 19 -30 35 -24 35 5 0 22 -16 37 -35z
m2377 -178 c13 -5 13 -6 -1 -6 -8 -1 -24 6 -35 15 -19 15 -19 15 1 6 11 -5 27
-12 35 -15z m46 -22 c15 -5 24 -18 28 -43 10 -62 70 -120 182 -177 55 -27 101
-52 104 -53 3 -2 -8 -15 -25 -28 -37 -29 -79 -31 -160 -5 -106 34 -129 47
-152 88 -12 21 -33 49 -47 62 -25 24 -28 24 -89 13 -76 -15 -119 -5 -130 29
-11 32 5 73 37 95 43 28 185 38 252 19z m-326 -40 c0 -2 -15 -12 -32 -20 l-33
-16 25 20 c24 20 40 26 40 16z m-1649 -22 c13 -16 12 -17 -3 -4 -17 13 -22 21
-14 21 2 0 10 -8 17 -17z m-507 -39 c3 -8 2 -12 -4 -9 -6 3 -10 10 -10 16 0
14 7 11 14 -7z m-19 -44 c-3 -5 -10 -10 -16 -10 -5 0 -9 5 -9 10 0 6 7 10 16
10 8 0 12 -4 9 -10z m2926 -66 c60 -31 108 -58 106 -60 -8 -9 -157 -12 -157
-3 0 4 -19 13 -42 19 -60 14 -157 64 -135 68 10 2 30 10 45 18 43 22 66 17
183 -42z m-1215 -10 c17 -12 37 -15 67 -11 49 6 148 -26 112 -36 -13 -4 -10
-5 7 -3 15 2 25 -1 22 -5 -3 -5 6 -14 19 -20 32 -14 69 -65 65 -87 -2 -11 -17
-19 -43 -23 -27 -5 -15 -6 38 -5 92 1 105 11 82 56 -33 63 8 98 91 77 36 -9
51 -19 64 -42 9 -16 27 -35 40 -42 l23 -11 -29 -5 c-27 -4 -27 -4 6 -6 31 -1
33 -2 19 -17 -15 -14 -13 -21 13 -72 17 -31 34 -62 40 -69 5 -7 6 -18 2 -24
-4 -7 -3 -9 4 -5 9 5 25 -22 27 -46 0 -4 5 -12 12 -19 9 -9 8 -20 -7 -50 -11
-21 -25 -41 -31 -45 -7 -4 -8 -9 -1 -13 12 -7 -2 -115 -18 -147 -15 -28 -232
-223 -245 -221 -13 3 -14 0 35 85 23 40 45 72 50 72 4 0 15 12 25 26 16 25 16
26 -5 19 -17 -5 -21 -4 -14 6 4 7 7 33 5 57 -2 52 23 133 57 180 28 39 39 104
20 119 -7 5 -33 18 -58 28 -25 10 -53 25 -62 33 -10 8 -25 12 -35 7 -10 -3
-36 -9 -58 -11 -22 -3 -58 -9 -80 -14 -97 -22 -139 -7 -133 47 2 23 8 29 36
31 39 4 44 20 5 17 -50 -3 -53 -5 -53 -24 0 -10 -9 -25 -20 -32 -11 -8 -23
-27 -26 -44 -9 -51 -21 -58 -88 -50 -57 6 -103 21 -135 43 -12 9 -12 13 2 27
10 9 18 28 19 43 2 40 3 46 11 59 4 6 3 31 -2 54 -8 37 -7 44 15 65 13 14 23
27 21 30 -2 6 43 33 56 34 4 0 19 -7 33 -16z m-1336 2 c0 -3 -4 -8 -10 -11 -5
-3 -10 -1 -10 4 0 6 5 11 10 11 6 0 10 -2 10 -4z m1660 -91 c11 -13 10 -14 -4
-9 -9 3 -16 10 -16 15 0 13 6 11 20 -6z m313 -52 c-7 -2 -21 -2 -30 0 -10 3
-4 5 12 5 17 0 24 -2 18 -5z m-5272 -81 c-7 -2 -23 -15 -34 -28 -11 -13 -25
-24 -31 -24 -5 0 -1 6 9 14 11 8 16 19 12 30 -4 10 -3 15 3 11 5 -3 18 -2 27
4 10 5 20 7 23 4 3 -3 -1 -8 -9 -11z m404 -31 c-11 -10 -31 -22 -45 -25 -18
-5 -14 0 15 18 48 31 56 33 30 7z m4092 -93 c-3 -8 -6 -5 -6 6 -1 11 2 17 5
13 3 -3 4 -12 1 -19z m113 -72 c0 -5 -7 -3 -15 4 -8 7 -12 17 -9 22 7 10 24
-9 24 -26z m-4490 -41 c21 -34 21 -37 5 -55 -15 -16 -15 -21 -4 -25 10 -4 13
-17 11 -45 -2 -22 -8 -37 -13 -34 -5 3 -9 1 -9 -5 0 -5 -16 5 -35 23 -39 37
-44 68 -23 137 14 50 39 51 68 4z m129 -62 c13 -25 -7 -83 -29 -83 -4 0 -15
17 -23 38 l-16 37 0 -39 c-1 -55 -13 -38 -16 23 -1 31 1 48 7 45 6 -4 7 2 3
15 l-6 21 35 -21 c20 -12 40 -28 45 -36z m-222 -15 c-3 -8 -6 -5 -6 6 -1 11 2
17 5 13 3 -3 4 -12 1 -19z m241 -179 c-6 -16 -12 -28 -14 -26 -5 5 13 57 20
57 3 0 0 -14 -6 -31z m4732 -202 c0 -2 -10 -12 -22 -23 l-23 -19 19 23 c18 21
26 27 26 19z m-342 -564 c-21 -2 -55 -2 -75 0 -21 2 -4 4 37 4 41 0 58 -2 38
-4z m-155 -10 c-7 -2 -19 -2 -25 0 -7 3 -2 5 12 5 14 0 19 -2 13 -5z m-479
-101 c3 -5 -1 -9 -9 -9 -8 0 -12 4 -9 9 3 4 7 8 9 8 2 0 6 -4 9 -8z m483
-1034 c-2 -13 -4 -3 -4 22 0 25 2 35 4 23 2 -13 2 -33 0 -45z"/>
<path d="M2449 9998 c-10 -18 -9 -20 6 -15 9 4 19 7 21 7 2 0 4 7 4 15 0 22
-18 18 -31 -7z"/>
<path d="M2134 9966 c46 -38 116 -69 165 -73 39 -4 52 0 89 27 41 31 53 50 31
50 -6 0 -23 -13 -39 -28 -26 -26 -32 -28 -78 -22 -28 3 -78 21 -111 38 -72 38
-98 41 -57 8z"/>
<path d="M2940 9912 c0 -41 -4 -54 -23 -69 -31 -24 -153 -78 -166 -73 -2 1 -7
-3 -11 -10 -4 -6 -18 -12 -31 -14 -14 -1 -29 -5 -35 -8 -5 -4 -111 -35 -234
-69 -242 -67 -303 -76 -550 -78 -159 -1 -168 4 -172 92 -5 96 -23 79 -72 -67
l-43 -130 38 -60 c39 -62 45 -88 10 -45 -11 13 -22 22 -25 19 -3 -3 17 -30 43
-60 41 -47 48 -51 55 -35 5 13 2 24 -10 32 -15 11 -15 16 -4 43 14 33 48 63
62 54 4 -3 8 0 8 6 0 7 6 8 19 0 29 -15 91 -13 91 4 0 19 86 34 133 23 20 -5
37 -13 37 -17 0 -16 -126 -119 -153 -125 -26 -7 -28 -11 -26 -54 2 -50 31 -91
81 -117 33 -17 51 -18 22 -1 -38 22 -95 70 -90 75 7 6 116 -76 116 -87 0 -19
63 -33 172 -38 103 -4 126 -2 185 18 217 71 357 150 368 207 3 15 10 40 15 56
7 21 5 36 -7 59 -12 25 -13 35 -3 50 11 18 10 19 -16 14 -20 -4 -50 6 -107 35
-44 22 -76 43 -71 47 5 5 27 11 50 14 33 4 43 1 53 -15 10 -17 19 -19 59 -13
57 8 102 -7 102 -33 0 -15 16 -24 71 -40 39 -12 75 -19 80 -17 4 3 29 40 54
82 l47 77 -15 100 c-13 80 -21 108 -46 143 -18 24 -28 50 -25 56 4 7 4 9 -1 5
-4 -4 -14 -3 -22 3 -11 9 -13 2 -13 -39z"/>
<path d="M2810 9943 c-14 -2 -70 -16 -125 -30 -55 -14 -137 -29 -181 -33 -61
-6 -92 -15 -122 -34 -36 -22 -52 -26 -114 -24 -41 0 -121 -8 -183 -21 -87 -17
-139 -21 -248 -19 -99 2 -137 0 -137 -9 0 -14 122 -28 250 -27 126 1 339 35
502 79 205 56 372 107 383 116 5 5 7 8 5 8 -3 -1 -16 -4 -30 -6z"/>
<path d="M1853 9354 c30 -16 44 -14 32 5 -3 6 -18 11 -33 11 l-27 -1 28 -15z"/>
<path d="M2816 9024 c-5 -12 -17 -15 -56 -12 -28 1 -51 1 -53 -2 -1 -5 -148
-46 -362 -104 -5 -2 -17 -6 -25 -10 -8 -3 -55 -19 -103 -35 -84 -27 -91 -28
-145 -16 -31 8 -57 13 -58 12 -1 -1 5 -24 13 -52 8 -27 14 -58 14 -67 0 -11 6
-15 16 -11 12 5 14 3 8 -7 -6 -9 -4 -11 4 -5 15 9 101 -14 101 -26 0 -5 5 -9
10 -9 6 0 10 7 10 15 0 8 5 15 11 15 5 0 8 3 5 8 -16 27 75 74 238 122 80 23
127 30 225 34 113 4 126 7 136 26 6 11 15 17 20 13 4 -4 5 -3 2 3 -3 5 3 23
13 39 17 26 17 31 4 57 -17 32 -20 34 -28 12z"/>
<path d="M2738 8863 c7 -3 16 -2 19 1 4 3 -2 6 -13 5 -11 0 -14 -3 -6 -6z"/>
<path d="M3803 10710 c-7 -14 -22 -74 -34 -135 -16 -85 -20 -125 -14 -175 12
-101 6 -188 -16 -231 -21 -43 -23 -49 -11 -49 5 0 19 19 32 43 13 23 41 68 63
100 41 58 69 158 46 165 -6 3 -6 9 2 18 10 12 9 13 -4 9 -9 -4 -17 0 -21 12
-6 20 -1 77 9 92 3 6 -2 25 -12 43 -10 18 -20 56 -23 83 -5 47 -6 49 -17 25z"/>
<path d="M540 10451 c0 -6 4 -13 10 -16 6 -3 7 1 4 9 -7 18 -14 21 -14 7z"/>
<path d="M6924 9562 c4 -7 1 -12 -9 -12 -12 0 -13 -4 -6 -18 6 -11 6 -24 -1
-36 -5 -10 -8 -26 -5 -37 3 -10 1 -22 -4 -25 -5 -3 -4 -14 2 -26 7 -13 7 -18
1 -14 -6 3 -13 2 -17 -4 -3 -5 -1 -10 5 -10 7 0 10 -7 7 -15 -4 -8 -2 -17 4
-21 6 -3 8 -13 4 -22 -3 -9 -3 -13 1 -10 4 4 16 1 28 -7 32 -23 49 -19 42 9
-3 13 -3 26 2 29 4 2 2 3 -4 1 -14 -3 -35 54 -23 62 5 3 7 10 4 15 -4 5 -1 9
5 9 6 0 8 5 3 13 -12 19 -14 47 -3 47 6 0 10 9 10 21 0 12 4 17 11 13 8 -4 8
0 0 15 -7 11 -16 21 -21 21 -4 0 -16 3 -26 7 -12 4 -15 3 -10 -5z"/>
<path d="M6875 9533 c2 -10 4 -22 4 -26 1 -5 5 -6 10 -3 11 7 3 46 -9 46 -5 0
-7 -8 -5 -17z"/>
<path d="M6688 9513 c7 -3 16 -2 19 1 4 3 -2 6 -13 5 -11 0 -14 -3 -6 -6z"/>
<path d="M6765 9510 c-3 -5 1 -10 10 -10 9 0 13 5 10 10 -3 6 -8 10 -10 10 -2
0 -7 -4 -10 -10z"/>
<path d="M6795 9480 c-3 -5 -1 -10 4 -10 6 0 11 5 11 10 0 6 -2 10 -4 10 -3 0
-8 -4 -11 -10z"/>
<path d="M6986 9455 c4 -8 11 -15 16 -15 6 0 5 6 -2 15 -7 8 -14 15 -16 15 -2
0 -1 -7 2 -15z"/>
<path d="M7050 9450 c0 -5 5 -10 11 -10 5 0 7 5 4 10 -3 6 -8 10 -11 10 -2 0
-4 -4 -4 -10z"/>
<path d="M6979 9419 c-8 -5 -8 -9 0 -13 6 -4 11 -1 11 6 1 8 7 5 17 -7 12 -15
14 -16 10 -3 -3 9 -1 19 6 21 7 3 2 4 -11 4 -12 -1 -28 -4 -33 -8z"/>
<path d="M6710 9393 c-14 -15 -16 -20 -6 -12 15 11 20 11 23 1 3 -6 9 -10 13
-7 9 6 32 -28 37 -55 12 -59 12 -91 2 -85 -6 4 -4 -7 5 -23 9 -17 16 -37 16
-45 0 -21 26 -28 40 -12 7 8 9 24 5 36 -4 12 -9 44 -10 71 -4 62 -40 137 -72
149 -29 11 -23 13 -53 -18z"/>
<path d="M7080 9389 c0 -5 5 -7 10 -4 6 3 10 8 10 11 0 2 -4 4 -10 4 -5 0 -10
-5 -10 -11z"/>
<path d="M7135 9360 c-3 -6 1 -7 9 -4 18 7 21 14 7 14 -6 0 -13 -4 -16 -10z"/>
<path d="M7062 9345 c-11 -12 -10 -15 3 -15 8 0 15 7 15 15 0 18 -2 18 -18 0z"/>
<path d="M7098 9288 c9 -9 15 -9 24 0 9 9 7 12 -12 12 -19 0 -21 -3 -12 -12z"/>
<path d="M6982 9281 c-11 -6 -9 -9 6 -13 15 -4 19 -2 15 8 -6 16 -4 16 -21 5z"/>
<path d="M6705 9270 c-3 -6 -3 -10 2 -10 4 0 1 -5 -7 -10 -12 -8 -10 -9 7 -7
30 4 34 10 18 24 -9 8 -16 9 -20 3z"/>
<path d="M7035 9250 c3 -5 1 -10 -5 -10 -6 0 -8 -5 -4 -11 4 -8 9 -7 15 2 12
19 11 29 -2 29 -5 0 -7 -4 -4 -10z"/>
<path d="M6640 9236 c0 -9 7 -12 20 -9 11 3 17 9 14 14 -8 14 -34 10 -34 -5z"/>
<path d="M7140 9229 c0 -5 5 -7 10 -4 6 3 10 8 10 11 0 2 -4 4 -10 4 -5 0 -10
-5 -10 -11z"/>
<path d="M7065 9210 c14 -16 15 -20 4 -20 -20 0 -92 -71 -82 -81 4 -4 20 -11
35 -14 21 -5 29 -3 34 9 3 9 11 13 16 10 6 -4 8 2 3 15 -8 27 11 28 25 1 6
-11 17 -20 25 -20 8 0 15 -5 15 -11 0 -6 6 -17 14 -25 8 -7 16 -19 19 -26 3
-10 8 -10 17 -2 9 9 9 17 -1 35 -6 13 -13 32 -14 44 -1 11 -3 23 -4 28 0 4 -8
7 -17 7 -8 0 -12 5 -9 10 3 6 -1 10 -9 10 -9 0 -16 5 -16 10 0 6 -6 10 -14 10
-8 0 -16 7 -20 15 -3 8 -13 15 -22 15 -16 0 -16 -2 1 -20z"/>
<path d="M7157 9199 c7 -7 15 -10 18 -7 3 3 -2 9 -12 12 -14 6 -15 5 -6 -5z"/>
<path d="M6785 9110 c3 -5 8 -10 11 -10 2 0 4 5 4 10 0 6 -5 10 -11 10 -5 0
-7 -4 -4 -10z"/>
<path d="M6940 9109 c0 -5 5 -7 10 -4 6 3 10 8 10 11 0 2 -4 4 -10 4 -5 0 -10
-5 -10 -11z"/>
<path d="M6977 9083 c-10 -9 -9 -23 1 -23 5 0 9 7 9 15 0 17 -1 18 -10 8z"/>
<path d="M6889 8988 c-1 -2 -3 -15 -5 -30 -2 -23 2 -29 24 -35 15 -4 33 -6 40
-4 8 1 16 -7 19 -18 3 -12 9 -21 14 -21 4 0 14 -19 20 -42 14 -50 28 -70 40
-62 17 10 9 52 -26 121 -34 69 -62 93 -105 93 -11 0 -21 -1 -21 -2z m61 -52
c0 -3 -4 -8 -10 -11 -5 -3 -10 -1 -10 4 0 6 5 11 10 11 6 0 10 -2 10 -4z"/>
<path d="M7215 8961 c-3 -5 -1 -12 5 -16 5 -3 10 1 10 9 0 18 -6 21 -15 7z"/>
<path d="M7330 8466 c0 -9 7 -16 16 -16 9 0 14 5 12 12 -6 18 -28 21 -28 4z"/>
<path d="M7270 8440 c0 -5 5 -10 11 -10 5 0 7 5 4 10 -3 6 -8 10 -11 10 -2 0
-4 -4 -4 -10z"/>
<path d="M7180 8279 c0 -5 5 -7 10 -4 6 3 10 8 10 11 0 2 -4 4 -10 4 -5 0 -10
-5 -10 -11z"/>
<path d="M7160 8196 c7 -7 13 -7 20 0 6 6 3 10 -10 10 -13 0 -16 -4 -10 -10z"/>
<path d="M7175 8169 c-4 -6 -3 -15 3 -21 6 -6 11 -4 15 6 7 18 -9 31 -18 15z"/>
<path d="M5344 8951 c-192 -88 -192 -88 -318 -200 -103 -92 -126 -118 -126
-140 0 -15 -9 -67 -20 -117 -11 -49 -27 -167 -36 -262 l-15 -174 42 -56 c24
-32 48 -62 54 -67 27 -27 103 -84 130 -97 17 -9 56 -29 87 -47 36 -19 72 -31
95 -31 54 0 136 24 186 53 80 48 82 58 2 19 -87 -43 -191 -60 -230 -40 -19 11
-19 12 10 24 l30 13 -35 1 c-25 1 2 12 90 34 177 46 197 54 220 87 14 19 37
33 68 42 44 13 48 18 71 73 23 53 25 73 26 202 0 78 4 142 8 142 4 0 7 21 7
48 -1 26 1 89 4 141 5 76 3 98 -10 118 -15 24 -15 24 8 12 13 -6 33 -21 45
-32 13 -11 26 -18 29 -14 11 10 -25 58 -92 122 -62 59 -64 63 -80 140 -9 44
-17 81 -18 81 -19 18 -63 3 -232 -75z m-37 -288 c12 -3 29 -21 39 -41 19 -41
28 -129 13 -138 -5 -3 -9 -13 -9 -24 0 -26 -64 -86 -106 -100 -22 -7 -57 -9
-88 -5 -44 5 -61 13 -98 48 -32 30 -47 53 -52 80 -4 21 -10 45 -13 52 -3 8 17
37 46 68 43 46 59 56 104 65 48 9 112 8 164 -5z m-345 -625 c15 -32 26 -58 23
-58 -8 0 -65 118 -64 132 0 8 3 8 6 -2 3 -8 19 -41 35 -72z m246 -54 c45 -31
14 -114 -43 -114 -26 0 -65 35 -65 58 0 17 20 55 34 64 18 12 50 9 74 -8z
m-178 -49 c19 -19 32 -35 29 -35 -3 0 -20 16 -39 35 -19 19 -32 35 -29 35 3 0
20 -16 39 -35z"/>
<path d="M5578 7483 c7 -3 16 -2 19 1 4 3 -2 6 -13 5 -11 0 -14 -3 -6 -6z"/>
<path d="M5595 7398 c-6 -54 -26 -118 -75 -243 l-12 -30 -25 60 c-14 33 -26
61 -27 63 -2 1 -36 -12 -77 -28 -172 -71 -316 -108 -472 -120 -83 -7 -188 -9
-237 -5 -53 4 -90 3 -94 -3 -3 -5 4 -40 16 -78 16 -54 21 -94 21 -186 -1 -65
1 -118 3 -118 2 0 101 47 228 108 5 3 -5 -15 -21 -39 -44 -66 -50 -76 -32 -63
8 6 37 15 64 19 28 5 55 9 60 11 117 29 146 32 278 30 115 -3 153 -7 201 -25
44 -16 62 -18 73 -10 10 9 13 6 13 -14 l0 -25 53 21 53 21 51 130 c54 138 88
274 85 341 -3 63 -50 179 -87 215 l-33 32 -7 -64z"/>
<path d="M4558 7113 c7 -3 16 -2 19 1 4 3 -2 6 -13 5 -11 0 -14 -3 -6 -6z"/>
<path d="M6833 8408 c-18 -6 -55 -34 -81 -62 -41 -43 -50 -61 -61 -113 l-12
-63 56 -93 c63 -106 71 -157 35 -227 -11 -22 -20 -42 -20 -45 0 -3 23 -5 52
-5 52 0 53 1 115 68 61 65 76 88 51 80 -6 -2 -28 28 -48 66 -20 39 -48 91 -63
116 -25 44 -51 130 -38 130 3 0 13 4 21 10 12 7 12 12 -4 28 -13 15 -16 29
-10 56 5 30 12 38 35 43 16 3 29 9 29 14 0 11 -15 10 -57 -3z"/>
<path d="M6628 7803 c6 -2 18 -2 25 0 6 3 1 5 -13 5 -14 0 -19 -2 -12 -5z"/>
<path d="M6700 7800 c-23 -7 -23 -8 -3 -9 12 -1 29 -4 39 -8 11 -4 15 -2 12 7
-6 18 -17 20 -48 10z"/>
<path d="M6562 7748 c-7 -7 -12 -21 -12 -32 1 -18 3 -17 16 7 17 31 15 44 -4
25z"/>
<path d="M1900 7700 c0 -5 5 -10 11 -10 5 0 7 5 4 10 -3 6 -8 10 -11 10 -2 0
-4 -4 -4 -10z"/>
<path d="M2380 6971 c0 -6 4 -13 10 -16 6 -3 7 1 4 9 -7 18 -14 21 -14 7z"/>
<path d="M6828 4043 c12 -2 30 -2 40 0 9 3 -1 5 -23 4 -22 0 -30 -2 -17 -4z"/>
<path d="M5988 2723 c7 -3 16 -2 19 1 4 3 -2 6 -13 5 -11 0 -14 -3 -6 -6z"/>
<path d="M6368 2573 c7 -3 16 -2 19 1 4 3 -2 6 -13 5 -11 0 -14 -3 -6 -6z"/>
<path d="M6308 2563 c6 -2 18 -2 25 0 6 3 1 5 -13 5 -14 0 -19 -2 -12 -5z"/>
<path d="M425 11820 c-3 -6 1 -7 9 -4 18 7 21 14 7 14 -6 0 -13 -4 -16 -10z"/>
<path d="M5441 564 c0 -11 3 -14 6 -6 3 7 2 16 -1 19 -3 4 -6 -2 -5 -13z"/>
</g>
</svg>
